<svg width="25" height="25" viewBox="0 0 25 25" fill="none" xmlns="http://www.w3.org/2000/svg">
<g id="ph:arrow-right-bold">
<path id="Vector" d="M21.9229 13.3292L14.8916 20.3604C14.6715 20.5806 14.3729 20.7043 14.0615 20.7043C13.7502 20.7043 13.4516 20.5806 13.2314 20.3604C13.0113 20.1403 12.8876 19.8417 12.8876 19.5304C12.8876 19.219 13.0113 18.9204 13.2314 18.7003L18.2617 13.672H3.90625C3.59545 13.672 3.29738 13.5485 3.07761 13.3287C2.85784 13.109 2.73438 12.8109 2.73438 12.5001C2.73438 12.1893 2.85784 11.8912 3.07761 11.6714C3.29738 11.4517 3.59545 11.3282 3.90625 11.3282H18.2617L13.2334 6.29695C13.0132 6.0768 12.8896 5.77822 12.8896 5.46688C12.8896 5.15554 13.0132 4.85695 13.2334 4.6368C13.4535 4.41665 13.7521 4.29297 14.0635 4.29297C14.3748 4.29297 14.6734 4.41665 14.8936 4.6368L21.9248 11.668C22.0341 11.7771 22.1207 11.9066 22.1798 12.0492C22.2389 12.1918 22.2692 12.3447 22.269 12.499C22.2688 12.6534 22.2381 12.8062 22.1787 12.9486C22.1193 13.0911 22.0324 13.2204 21.9229 13.3292Z" fill="white"/>
</g>
</svg>
